<svg width="215" height="218" viewBox="0 0 215 218" fill="none" xmlns="http://www.w3.org/2000/svg">
<rect y="1" width="215" height="215" rx="107.5" fill="#F3F3F3"/>
<path d="M106.954 56.905C112.754 56.905 117.974 58.1133 122.614 60.53C127.254 62.9467 130.879 66.33 133.489 70.68C136.099 74.9333 137.404 79.8633 137.404 85.47C137.404 96.6833 134.069 104.707 127.399 109.54C120.729 114.373 111.353 116.838 99.2694 116.935L98.9794 137.96H96.6594L96.3694 114.325H98.6894C109.323 114.325 117.926 112.392 124.499 108.525C131.169 104.562 134.504 96.8767 134.504 85.47C134.504 77.64 131.943 71.3567 126.819 66.62C121.696 61.8833 115.074 59.515 106.954 59.515C98.7377 59.515 92.1644 61.7867 87.2344 66.33C82.4011 70.7767 79.9844 76.77 79.9844 84.31H77.0844C77.0844 78.6067 78.3894 73.725 80.9994 69.665C83.6094 65.5083 87.1861 62.3667 91.7294 60.24C96.2727 58.0167 101.348 56.905 106.954 56.905ZM97.9644 160.29C96.9011 160.29 95.9827 159.952 95.2094 159.275C94.5327 158.502 94.1944 157.535 94.1944 156.375C94.1944 155.215 94.5327 154.297 95.2094 153.62C95.9827 152.847 96.9011 152.46 97.9644 152.46C99.0277 152.46 99.8977 152.847 100.574 153.62C101.348 154.297 101.734 155.215 101.734 156.375C101.734 157.535 101.348 158.502 100.574 159.275C99.8977 159.952 99.0277 160.29 97.9644 160.29Z" fill="black"/>
</svg>
